<?xml version="1.0" standalone="no"?>
<!DOCTYPE svg PUBLIC "-//W3C//DTD SVG 20010904//EN"
 "http://www.w3.org/TR/2001/REC-SVG-20010904/DTD/svg10.dtd">
<svg version="1.0" xmlns="http://www.w3.org/2000/svg"
 width="1536.000000pt" height="1536.000000pt" viewBox="0 0 1536.000000 1536.000000"
 preserveAspectRatio="xMidYMid meet">
<metadata>
Created by potrace 1.14, written by Peter Selinger 2001-2017
</metadata>
<g transform="translate(0.000000,1536.000000) scale(0.100000,-0.100000)"
fill="#000000" stroke="none">
<path d="M9269 15296 c-2 -2 -35 -6 -74 -9 -38 -4 -101 -11 -140 -16 -38 -6
-104 -13 -145 -17 -41 -3 -81 -8 -90 -9 -8 -2 -26 -4 -40 -4 -19 -1 -29 -9
-37 -31 -8 -22 -25 -36 -58 -51 -42 -19 -64 -21 -204 -19 -270 5 -295 4 -346
-3 -27 -3 -65 -11 -83 -16 -18 -5 -35 -10 -37 -10 -38 -4 -211 -64 -365 -126
-435 -177 -667 -312 -695 -405 -20 -64 -6 -118 63 -245 12 -23 26 -62 31 -89
5 -29 17 -53 29 -62 58 -40 49 -201 -24 -444 -25 -81 -100 -290 -129 -355 -7
-16 -35 -84 -63 -150 -28 -66 -66 -155 -86 -198 -20 -42 -36 -79 -36 -82 0 -3
-10 -27 -21 -53 -50 -112 -59 -132 -59 -137 0 -2 -11 -28 -24 -57 -14 -29 -44
-98 -67 -153 -23 -55 -50 -118 -59 -140 -10 -22 -42 -94 -70 -160 -29 -66 -60
-139 -71 -162 -10 -23 -19 -44 -19 -47 0 -3 -12 -31 -26 -63 -25 -55 -86 -192
-159 -363 -18 -41 -42 -98 -55 -125 -12 -28 -28 -63 -35 -80 -7 -16 -22 -50
-33 -75 -11 -25 -41 -97 -67 -160 -25 -63 -53 -128 -60 -145 -11 -25 -174
-419 -392 -950 -25 -60 -51 -123 -58 -140 -7 -16 -52 -127 -100 -245 -47 -118
-92 -228 -100 -245 -7 -16 -90 -221 -185 -455 -94 -234 -177 -438 -185 -455
-14 -33 -392 -982 -585 -1470 -67 -170 -128 -323 -135 -340 -47 -109 -605
-1524 -665 -1685 -24 -63 -54 -144 -67 -180 -43 -117 -194 -532 -213 -589 -11
-31 -42 -139 -70 -241 -94 -339 -132 -436 -281 -710 -53 -99 -111 -228 -125
-280 -2 -8 -11 -42 -19 -75 -35 -130 -27 -314 19 -460 33 -104 39 -121 58
-165 83 -195 161 -309 323 -479 172 -180 270 -224 376 -171 193 99 445 606
831 1675 22 61 46 126 53 145 8 19 37 103 65 185 48 140 295 830 362 1010 16
44 31 87 33 95 2 8 41 116 86 240 45 124 104 288 131 365 84 236 159 449 168
475 11 32 117 334 168 475 123 343 209 526 288 611 33 35 106 80 179 111 45
19 146 42 260 59 22 3 110 23 195 44 209 53 455 107 650 144 14 3 34 7 45 9
11 3 40 8 65 12 25 3 108 22 185 40 77 19 152 36 167 39 15 2 63 12 105 20
122 24 193 36 318 51 28 4 61 8 75 11 157 25 669 25 840 -1 236 -36 325 -55
495 -107 411 -123 714 -279 1000 -514 123 -101 313 -296 375 -384 14 -19 27
-37 30 -40 11 -11 68 -88 97 -130 56 -83 120 -274 137 -410 3 -25 8 -55 10
-67 10 -51 20 -280 20 -448 0 -183 -7 -299 -24 -435 -6 -42 -12 -91 -15 -110
-8 -62 -64 -336 -85 -422 -55 -212 -121 -389 -226 -603 -92 -185 -104 -206
-220 -380 -94 -141 -111 -165 -174 -240 -19 -22 -53 -63 -75 -89 -22 -27 -49
-58 -60 -71 -148 -165 -214 -234 -350 -370 -183 -182 -240 -235 -380 -355 -55
-47 -102 -87 -105 -90 -7 -8 -231 -182 -260 -203 -90 -63 -267 -180 -307 -204
-27 -15 -50 -30 -53 -33 -14 -15 -378 -201 -490 -249 -30 -13 -73 -32 -95 -41
-302 -132 -702 -250 -960 -284 -22 -3 -73 -10 -112 -15 -208 -30 -568 -33
-739 -6 -16 3 -42 7 -59 10 -16 2 -48 7 -70 11 -351 51 -712 220 -955 444 -25
23 -65 61 -90 83 -80 75 -162 142 -290 237 -69 52 -127 97 -130 100 -15 19
-135 92 -180 110 -86 34 -127 28 -215 -31 -89 -60 -198 -164 -243 -233 -32
-49 -61 -132 -66 -190 -5 -47 19 -147 48 -203 60 -119 292 -382 461 -521 35
-30 74 -63 87 -74 13 -10 32 -27 43 -36 35 -30 228 -177 285 -217 341 -240
444 -304 581 -359 52 -21 103 -42 114 -47 24 -10 182 -56 245 -70 77 -18 104
-23 165 -33 98 -15 122 -19 135 -21 8 -2 49 -6 90 -10 41 -4 77 -8 80 -10 18
-11 226 -20 460 -20 312 0 444 9 675 45 33 5 83 12 110 15 58 7 73 9 220 35
119 21 126 23 200 40 28 6 61 14 75 16 14 3 34 8 45 11 11 4 25 8 30 9 95 18
371 113 619 211 307 122 494 215 771 384 128 78 371 249 499 351 85 68 222
177 305 242 151 119 198 157 230 186 44 38 287 361 412 545 40 61 76 112 79
115 10 8 213 319 283 431 73 117 207 369 207 388 0 7 22 49 48 94 27 45 51 89
54 97 13 31 105 160 158 219 43 48 65 88 106 185 173 410 308 921 389 1476 4
25 9 59 12 75 38 225 41 480 8 640 -24 114 -97 364 -140 481 -100 265 -225
496 -387 712 -76 101 -269 302 -373 389 -172 143 -413 311 -600 417 -55 31
-107 60 -115 65 -8 5 -62 34 -120 64 -89 46 -171 84 -417 193 -17 8 -73 30
-125 49 -51 20 -102 40 -113 44 -11 5 -99 36 -195 70 -210 73 -317 114 -322
122 -2 4 69 58 157 121 88 63 201 146 251 184 114 87 357 276 364 283 3 4 23
19 45 36 21 16 46 36 55 45 9 9 25 23 37 31 11 8 40 31 64 51 24 20 103 85
174 144 212 176 425 385 660 648 39 44 75 84 80 90 6 6 60 70 119 141 60 72
118 141 130 155 11 14 37 45 56 70 19 25 37 47 40 50 8 7 190 239 215 275 11
15 29 39 41 54 37 47 189 264 249 356 287 441 507 861 589 1121 49 159 59 242
52 439 -3 99 -7 189 -10 200 -2 11 -6 47 -10 80 -6 51 -13 93 -40 230 -21 108
-100 335 -157 455 -151 316 -382 587 -704 826 -183 135 -434 270 -680 367
-116 46 -301 107 -365 122 -8 2 -60 15 -115 29 -55 13 -112 27 -128 30 -15 2
-35 7 -45 10 -53 17 -388 66 -552 82 -36 3 -96 9 -135 14 -67 7 -499 12 -506
6z m1111 -1200 c14 -2 52 -7 85 -11 33 -4 96 -13 140 -20 44 -8 100 -17 125
-20 234 -32 438 -129 577 -273 163 -169 236 -352 228 -572 -4 -105 -13 -153
-57 -285 -28 -83 -182 -410 -243 -515 -27 -45 -155 -257 -187 -308 -9 -15 -47
-83 -83 -151 -111 -208 -308 -519 -463 -731 -61 -83 -190 -256 -209 -280 -140
-177 -370 -460 -430 -530 -12 -14 -51 -61 -88 -105 -37 -44 -81 -96 -99 -116
-17 -20 -53 -62 -81 -94 -27 -33 -73 -84 -101 -115 -28 -30 -88 -98 -134 -150
-174 -200 -443 -478 -639 -662 -105 -98 -230 -190 -341 -250 -41 -22 -124 -69
-185 -104 -60 -34 -128 -71 -150 -80 -43 -18 -284 -93 -325 -100 -14 -3 -65
-16 -115 -29 -49 -13 -106 -27 -125 -30 -19 -3 -52 -10 -73 -16 -21 -6 -53
-12 -70 -14 -18 -1 -43 -6 -57 -9 -14 -3 -36 -8 -50 -10 -14 -2 -97 -18 -185
-35 -88 -18 -176 -34 -195 -37 -19 -3 -38 -8 -41 -10 -4 -2 -24 -6 -45 -10
-22 -3 -59 -10 -84 -16 -81 -18 -429 -78 -454 -78 -51 0 176 624 656 1800 80
195 160 393 177 440 18 47 46 121 63 165 17 44 39 99 49 122 11 24 19 45 19
49 0 5 45 115 85 209 7 17 25 58 39 92 14 35 37 86 50 115 13 29 35 80 49 113
14 33 51 114 82 180 259 545 324 691 345 775 7 26 35 75 65 115 60 79 102 165
118 242 9 43 25 70 82 139 83 100 182 255 213 334 28 71 40 134 46 243 6 106
34 197 72 235 8 7 17 19 21 26 18 29 155 123 239 163 129 61 335 124 484 147
19 3 44 7 55 10 11 2 45 7 75 11 30 4 63 9 73 11 34 6 192 19 367 29 63 4 116
8 118 10 5 5 484 -3 512 -9z"/>
</g>
</svg>
