<svg width="165" height="57" viewBox="0 0 165 57" fill="currentColor" xmlns="http://www.w3.org/2000/svg">
<path d="M9.96167 55.3268C8.34228 54.3147 7.12773 53.4291 6.31803 52.67C5.55894 51.9109 5.1794 51.2024 5.1794 50.5445C5.1794 49.8867 5.60955 49.3047 6.46985 48.7986C6.72288 48.6468 7.15303 48.7986 7.76031 49.2541C8.41819 49.6589 9.05076 50.165 9.65803 50.7723C10.9738 51.9868 12.6944 52.5941 14.8199 52.5941C15.7308 52.5941 16.9453 52.417 18.4635 52.0627C20.5383 51.4555 22.3602 50.5698 23.9289 49.4059C25.5483 48.242 27.0918 46.7491 28.5594 44.9273C29.4703 43.7127 30.1535 42.3717 30.6089 40.9041C31.0644 39.4365 31.2921 38.0448 31.2921 36.7291C31.2921 35.1097 30.9885 33.9205 30.3812 33.1614C28.357 30.4286 25.4724 29.0623 21.7276 29.0623C20.1082 29.0623 18.59 29.2647 17.173 29.6695L12.7703 30.5805C12.6691 30.6311 12.4414 30.707 12.0871 30.8082C11.7329 30.8588 11.1762 31.9468 10.4171 34.0723C9.65803 36.1977 8.67122 38.9811 7.45667 42.4223C6.39394 45.5092 5.55894 47.6853 4.95167 48.9505C4.3444 50.165 3.78773 50.7723 3.28167 50.7723C2.77561 50.7723 2.16834 50.2156 1.45985 49.1023C0.903185 48.1914 0.624852 47.407 0.624852 46.7491C0.624852 46.0912 0.852579 45.3827 1.30803 44.6236C1.56106 44.1682 1.76349 43.7127 1.91531 43.2573C2.11773 42.8018 2.32016 42.1692 2.52258 41.3595C3.18046 39.3859 5.07819 34.4771 8.21576 26.6332C11.4039 18.7892 13.8836 12.8683 15.6549 8.87046C16.92 5.98591 17.2995 4.46773 16.7935 4.31591C16.7935 4.16409 16.7176 3.93636 16.5658 3.63273C16.4139 3.32909 16.3633 3.10136 16.4139 2.94955C16.4139 2.64591 17.1224 2.19045 18.5394 1.58318C19.9564 0.975908 20.9938 0.722878 21.6517 0.824092H22.1071C22.765 0.824092 23.0939 0.697577 23.0939 0.444547C23.1952 0.444547 23.6506 0.39394 24.4603 0.292726C25.3206 0.191515 26.2315 0.191515 27.193 0.292726C30.5836 0.596361 33.2152 1.58318 35.0876 3.25318C36.96 4.92318 37.8709 7.14985 37.8203 9.93318C37.7697 11.1983 36.8841 13.0708 35.1635 15.5505C33.4429 17.9795 31.7223 19.9785 30.0017 21.5473C29.192 22.2558 28.2558 23.0148 27.193 23.8245C26.1809 24.5836 25.523 25.0644 25.2194 25.2668L27.1171 25.95C29.5968 26.8609 31.5452 27.9995 32.9621 29.3659C34.4297 30.6817 35.4418 32.4529 35.9985 34.6795C36.0997 35.1856 36.1503 35.6411 36.1503 36.0459C36.1503 37.1592 35.9479 38.4244 35.543 39.8414C35.1888 41.2583 34.7839 42.4982 34.3285 43.5609C34.0249 43.8645 33.7718 44.1935 33.5694 44.5477C33.367 44.902 33.2405 45.1297 33.1899 45.2309C33.1392 45.4333 32.6838 46.2177 31.8235 47.5841C30.9632 48.8998 30.2041 49.9626 29.5462 50.7723C27.0159 52.9483 24.7639 54.3906 22.7903 55.0991C20.6649 56.0606 18.2611 56.5414 15.5789 56.5414C13.0992 56.5414 11.2268 56.1365 9.96167 55.3268ZM13.6812 26.1018C14.2379 26.0006 15.3512 25.7982 17.0212 25.4945C18.7418 25.1403 19.9311 24.8367 20.5889 24.5836C20.6902 24.533 20.9938 24.3812 21.4999 24.1282C22.0565 23.8245 22.6132 23.3944 23.1699 22.8377C24.3844 21.7244 25.8773 20.0797 27.6485 17.9036C29.4197 15.677 30.7102 13.8045 31.5199 12.2864C32.785 10.2115 33.4176 8.69333 33.4176 7.73182C33.4176 7.07394 33.1392 6.46667 32.5826 5.91C31.9247 5.1003 30.3559 4.69546 27.8762 4.69546C26.2568 4.69546 24.8652 4.84727 23.7012 5.15091C22.9927 5.35333 22.4614 5.60636 22.1071 5.91C21.8035 6.16303 21.6517 6.56788 21.6517 7.12455C21.6517 7.88364 21.2468 8.66803 20.4371 9.47772C20.3865 9.78136 20.26 10.085 20.0576 10.3886C19.9058 10.6417 19.8045 10.7935 19.7539 10.8441C19.7539 10.9959 19.4503 11.755 18.843 13.1214C18.0333 14.6902 17.2742 16.4614 16.5658 18.435C14.6427 22.9895 13.6812 25.5452 13.6812 26.1018ZM50.3678 17.7518C50.0136 17.3976 49.71 16.7903 49.4569 15.93C49.2039 15.0697 49.2039 14.6395 49.4569 14.6395C49.8618 14.5889 50.3172 14.1588 50.8233 13.3491C51.38 12.4888 51.633 11.7803 51.5824 11.2236C51.5824 11.0212 51.6583 10.8441 51.8101 10.6923C51.9619 10.4898 52.1391 10.3633 52.3415 10.3127C52.7463 10.0597 53.1006 9.93318 53.4042 9.93318C54.2645 9.93318 55.0489 10.5405 55.7574 11.755C56.061 12.4129 56.2128 12.9948 56.2128 13.5009C56.2128 13.9564 56.0863 14.4371 55.8333 14.9432C55.5803 15.3986 55.1248 16.0059 54.4669 16.765C53.6066 17.9289 52.7969 18.5109 52.0378 18.5109C51.5318 18.5109 50.9751 18.2579 50.3678 17.7518ZM43.0047 48.5709C42.2962 47.8624 41.9419 46.8503 41.9419 45.5345C41.9419 44.8261 42.0684 44.2188 42.3215 43.7127C42.3215 43.4597 42.3721 43.1561 42.4733 42.8018C42.5745 42.4476 42.6251 42.2198 42.6251 42.1186C42.5745 41.815 42.7769 40.98 43.2324 39.6136C44.1433 37.5894 45.3578 34.0217 46.876 28.9105C46.876 28.6574 46.9772 28.455 47.1797 28.3032C47.3821 28.1008 47.6857 27.9742 48.0906 27.9236C48.4954 27.8224 48.7738 27.7718 48.9256 27.7718C49.2292 27.7718 49.4822 27.8983 49.6847 28.1514C49.9377 28.3538 50.2666 28.7586 50.6715 29.3659C50.9751 29.6695 51.1269 30.125 51.1269 30.7323C51.1269 31.6938 50.798 32.8577 50.1401 34.2241C49.4822 35.6917 49.0521 36.9568 48.8497 38.0195C48.2424 39.3859 47.7616 40.6511 47.4074 41.815C47.3062 42.1186 47.1544 42.7259 46.9519 43.6368C46.7495 44.5477 46.4712 45.2815 46.1169 45.8382C45.8133 47.2552 45.535 48.242 45.2819 48.7986C45.0289 49.3553 44.7506 49.6336 44.4469 49.6336C44.0927 49.6336 43.6119 49.2794 43.0047 48.5709ZM62.3253 50.4686C61.5156 50.3168 60.6806 49.7855 59.8203 48.8745C59.0106 47.913 58.4792 47.0274 58.2262 46.2177C58.2262 46.1165 58.1756 46.0153 58.0744 45.9141C57.9732 45.7623 57.8973 45.6611 57.8467 45.6105C57.6442 45.4586 57.543 44.6236 57.543 43.1055C57.543 41.8909 57.5936 40.6258 57.6948 39.31C57.8467 37.9942 58.0238 36.9315 58.2262 36.1218L59.5926 32.0986L60.6553 29.0623L62.7048 24.6595L59.6685 23.8245C59.3142 23.7739 59.0106 23.5968 58.7576 23.2932C58.5552 22.9895 58.4539 22.7112 58.4539 22.4582C58.4539 22.0533 58.6564 21.5726 59.0612 21.0159C59.5167 20.4086 59.8709 20.105 60.1239 20.105C60.2758 20.1556 60.6806 20.1809 61.3385 20.1809C62.8567 20.1809 63.9953 20.105 64.7544 19.9532C65.2605 19.7508 65.6147 19.3459 65.8171 18.7386C66.0195 18.3338 66.2473 17.8277 66.5003 17.2205C66.8039 16.6132 67.0823 16.0565 67.3353 15.5505C67.4871 15.2468 67.7148 14.7914 68.0185 14.1841C68.3727 13.5262 68.8029 12.7924 69.3089 11.9827C69.4102 11.8309 69.6379 11.4767 69.9921 10.92C70.3464 10.3127 70.7765 9.80667 71.2826 9.40182C71.6368 9.04758 72.067 8.87046 72.573 8.87046C73.0791 8.87046 73.737 9.19939 74.5467 9.85727C74.6479 10.0091 74.7744 10.2115 74.9262 10.4645C75.1286 10.7176 75.2298 10.9453 75.2298 11.1477C75.2298 11.3502 75.0274 11.7803 74.6226 12.4382C74.3189 13.0455 74.0153 13.6021 73.7117 14.1082C73.4586 14.5636 73.2309 14.9685 73.0285 15.3227C72.4212 16.3348 71.9911 17.0939 71.738 17.6C71.232 18.2579 70.9789 18.7639 70.9789 19.1182C70.9789 19.4724 71.3079 19.6495 71.9658 19.6495C72.6742 19.6495 73.8635 19.4977 75.5335 19.1941C76.242 19.0929 76.7227 19.0423 76.9758 19.0423C78.747 19.0423 79.7085 19.7761 79.8603 21.2436C79.9109 21.5473 79.9362 21.9015 79.9362 22.3064C79.9362 23.0148 79.6832 23.445 79.1771 23.5968C78.7217 23.7486 77.6589 23.8245 75.9889 23.8245C74.3695 24.0776 72.6995 24.2041 70.9789 24.2041C70.6753 24.2041 70.3211 24.2294 69.9162 24.28C69.562 24.28 69.1824 24.3306 68.7776 24.4318C68.3727 24.533 68.0691 24.6848 67.8667 24.8873C67.7148 25.0897 67.5377 25.4186 67.3353 25.8741C67.1835 26.0259 66.8292 26.6079 66.2726 27.62C65.5641 29.0876 65.1086 29.9732 64.9062 30.2768C63.5398 34.3253 62.5277 38.475 61.8698 42.7259C61.7686 43.5356 61.718 44.0417 61.718 44.2441C61.718 45.0032 61.9711 45.5345 62.4771 45.8382C62.9832 46.1418 63.8435 46.2936 65.058 46.2936C66.7786 46.2936 68.2715 46.1165 69.5367 45.7623C71.0548 45.1044 72.1935 44.5477 72.9526 44.0923C73.408 43.8392 73.8129 43.6115 74.1671 43.4091C74.572 43.1561 74.8503 42.9789 75.0021 42.8777C75.1539 42.5741 75.3311 42.4223 75.5335 42.4223C75.9383 42.4223 76.2926 42.8271 76.5962 43.6368C76.5962 44.4465 76.4191 45.155 76.0648 45.7623C75.7106 46.3695 74.825 47.078 73.408 47.8877C70.4729 49.7602 67.5377 50.6964 64.6026 50.6964C63.7929 50.6964 63.0338 50.6205 62.3253 50.4686ZM85.4058 56.6932C84.3937 56.7944 83.5334 56.0606 82.8249 54.4918C82.1164 52.9736 81.7622 51 81.7622 48.5709C81.7116 48.1661 81.6863 47.5335 81.6863 46.6732C81.6863 42.6753 82.7237 37.058 84.7985 29.8214C85.507 27.2911 86.8481 23.7486 88.8217 19.1941C90.7954 14.6395 91.9846 12.1852 92.3895 11.8309H92.5413C92.7437 11.8309 92.8449 11.6032 92.8449 11.1477C92.8449 11.0465 93.0473 10.667 93.4522 10.0091C93.857 9.30061 94.2366 8.59212 94.5908 7.88364C95.6029 6.41606 96.8681 5.02439 98.3863 3.70864C99.9045 2.39288 101.271 1.48197 102.485 0.975908C103.244 0.672272 104.004 0.520455 104.763 0.520455C106.23 0.520455 107.445 1.02651 108.406 2.03864C109.418 3.00015 109.924 4.2147 109.924 5.68227C109.924 6.49197 109.747 7.27636 109.393 8.03545C108.988 9.65485 107.926 11.7297 106.205 14.26C105.598 14.5636 105.092 14.7155 104.687 14.7155C104.434 14.7155 104.257 14.6648 104.155 14.5636C104.054 14.4624 104.079 14.3106 104.231 14.1082C104.231 13.9058 104.282 13.6274 104.383 13.2732C104.535 12.9189 104.636 12.6153 104.687 12.3623C104.687 12.2611 104.788 11.9574 104.99 11.4514C105.243 10.8947 105.37 10.3886 105.37 9.93318C105.825 8.16197 106.053 6.89682 106.053 6.13773C106.053 5.32803 105.8 4.92318 105.294 4.92318C104.839 4.87257 104.155 5.12561 103.244 5.68227C102.334 6.18833 101.878 6.61848 101.878 6.97273V7.27636C101.625 7.22576 100.714 8.16197 99.1454 10.085C97.6272 11.9574 96.4379 13.6274 95.5776 15.095C94.2113 17.9289 92.9208 20.8894 91.7063 23.9764L91.099 25.7982L92.3135 25.95C93.022 26.0006 94.4896 25.8235 96.7163 25.4186C97.5766 25.2668 98.3104 25.1909 98.9176 25.1909C99.7779 25.1909 100.436 25.3427 100.891 25.6464C101.347 25.8994 101.701 26.3548 101.954 27.0127C102.106 27.367 102.182 27.6959 102.182 27.9995C102.182 28.7586 101.473 29.3153 100.056 29.6695C98.6899 30.0238 96.3114 30.2768 92.9208 30.4286C92.4654 30.378 91.8834 30.3527 91.1749 30.3527C90.3652 30.3527 89.8592 30.4539 89.6567 30.6564C89.3531 30.8082 88.8723 31.8962 88.2145 33.9205C87.6072 35.9447 87.1517 37.8424 86.8481 39.6136C86.1902 42.2452 85.8613 45.0285 85.8613 47.9636C85.8613 49.6842 85.9878 51.1012 86.2408 52.2145C86.4432 52.9736 86.5445 53.7327 86.5445 54.4918C86.5445 55.6558 86.1649 56.3895 85.4058 56.6932ZM110.002 48.7986C109.495 48.8998 109.04 48.9505 108.635 48.9505C107.977 48.9505 107.37 48.8998 106.813 48.7986C106.257 48.6468 105.978 48.4697 105.978 48.2673C105.978 48.1155 105.953 48.0142 105.902 47.9636C105.852 47.913 105.751 47.8877 105.599 47.8877C105.548 47.8371 105.396 47.7106 105.143 47.5082C104.89 47.3058 104.587 47.1286 104.232 46.9768C103.777 46.2683 103.549 45.5092 103.549 44.6995C103.549 43.8392 103.777 42.4982 104.232 40.6764C104.384 39.057 105.143 37.0327 106.51 34.6036C107.876 32.1745 109.47 29.872 111.292 27.6959C113.164 25.5198 114.834 24.0017 116.302 23.1414C117.061 22.3823 118.023 22.0027 119.187 22.0027C120.097 22.0027 120.958 22.2305 121.767 22.6859C122.476 23.0908 123.21 23.7739 123.969 24.7355C124.779 25.697 125.411 26.6838 125.867 27.6959C126.069 28.455 126.17 29.1888 126.17 29.8973C126.17 30.6564 126.069 31.8456 125.867 33.465C125.614 34.3759 125.386 35.4892 125.183 36.805C125.032 38.1208 124.956 39.2594 124.956 40.2209C124.854 40.9294 124.905 41.5114 125.107 41.9668C125.31 42.3717 125.588 42.5741 125.942 42.5741C126.195 42.5741 126.474 42.4982 126.777 42.3464C127.284 42.0933 127.84 41.9668 128.447 41.9668C129.004 41.9668 129.46 42.1186 129.814 42.4223C130.168 42.7259 130.345 43.1814 130.345 43.7886C130.345 44.6995 129.713 45.6105 128.447 46.5214C127.233 47.4323 126.069 47.8877 124.956 47.8877C124.197 47.8877 123.488 47.3058 122.83 46.1418C122.223 44.9273 121.616 43.3838 121.008 41.5114L120.553 39.7655L117.289 42.8777L115.543 44.6236C114.733 45.4333 114.278 45.9141 114.177 46.0659C113.62 47.0274 112.228 47.9383 110.002 48.7986ZM110.229 44.32C111.444 43.6115 112.937 42.3717 114.708 40.6005C116.479 38.8292 117.947 37.1339 119.111 35.5145C120.679 33.4397 121.666 31.3902 122.071 29.3659C121.869 28.7586 121.54 28.1514 121.084 27.5441C120.629 26.9368 120.224 26.6079 119.87 26.5573C118.858 26.5573 117.795 27.1392 116.682 28.3032C115.568 29.4671 114.252 31.0865 112.734 33.1614L110.229 36.8809C109.926 37.2858 109.394 38.3738 108.635 40.145C107.876 41.8656 107.497 42.903 107.497 43.2573C107.497 44.3706 107.825 44.9273 108.483 44.9273C108.989 44.9273 109.571 44.7248 110.229 44.32ZM137.66 47.66C137.509 47.66 137.23 47.5335 136.825 47.2805C136.471 47.0274 136.167 46.7744 135.914 46.5214C135.56 46.1671 135.332 45.7876 135.231 45.3827C135.181 44.9779 135.155 44.0417 135.155 42.5741C135.155 41.0053 135.459 39.2847 136.066 37.4123C136.724 35.5398 137.863 32.8324 139.482 29.29L141.987 23.9764C142.139 23.6221 142.493 23.1161 143.05 22.4582H143.809C144.163 22.4582 144.543 22.6859 144.948 23.1414C145.403 23.5968 145.732 24.1282 145.934 24.7355C145.934 25.5452 145.808 26.3042 145.555 27.0127C145.352 27.7212 144.77 28.708 143.809 29.9732C143.404 30.5805 142.923 31.542 142.367 32.8577C141.81 34.1735 141.43 35.2868 141.228 36.1977C141.076 36.4508 140.874 36.8809 140.621 37.4882C140.418 38.0955 140.165 38.728 139.862 39.3859L139.482 41.0559L144.568 35.8182C146.795 33.5915 148.591 31.9721 149.958 30.96C151.375 29.9479 152.539 29.4418 153.449 29.4418C154.512 29.4418 155.372 30.125 156.03 31.4914C156.486 32.2505 156.789 32.8577 156.941 33.3132C157.093 33.718 157.169 34.3759 157.169 35.2868C157.169 35.5905 157.118 36.4508 157.017 37.8677V42.5741C157.726 42.4223 158.358 42.2198 158.915 41.9668C159.522 41.7138 159.978 41.5367 160.281 41.4355C161.445 40.9294 162.736 40.6258 164.153 40.5245C164.051 41.3848 163.672 42.3211 163.014 43.3332C162.356 44.3453 161.546 45.2056 160.585 45.9141C159.623 46.572 158.687 46.9009 157.776 46.9009C157.068 46.9009 156.309 46.572 155.499 45.9141C154.74 45.2562 154.183 44.5224 153.829 43.7127C153.627 43.1561 153.5 42.4729 153.449 41.6632C153.449 40.8535 153.449 39.7148 153.449 38.2473V35.4386C153.449 34.9326 153.298 34.6795 152.994 34.6795C152.792 34.6795 152.311 34.9832 151.552 35.5905C150.54 36.5014 148.895 38.1461 146.618 40.5245C144.442 42.8018 142.544 44.573 140.924 45.8382C139.356 47.0527 138.268 47.66 137.66 47.66Z" />
</svg>
